<?xml version="1.0" standalone="no"?>
<!DOCTYPE svg PUBLIC "-//W3C//DTD SVG 20010904//EN"
 "http://www.w3.org/TR/2001/REC-SVG-20010904/DTD/svg10.dtd">
<svg version="1.0" xmlns="http://www.w3.org/2000/svg"
 width="512.000000pt" height="512.000000pt" viewBox="0 0 512.000000 512.000000"
 preserveAspectRatio="xMidYMid meet">
<metadata>
Created by potrace 1.11, written by Peter Selinger 2001-2013
</metadata>
<g transform="translate(0.000000,512.000000) scale(0.100000,-0.100000)"
fill="#000000" stroke="none">
<path d="M2043 4506 c-1 -6 -24 -69 -51 -141 -51 -131 -226 -598 -516 -1380
-86 -231 -163 -436 -171 -455 -8 -19 -114 -303 -236 -630 -318 -854 -334 -892
-413 -974 -67 -68 -118 -87 -256 -90 l-85 -2 -3 -115 -3 -115 671 0 670 0 0
113 c0 101 -2 113 -17 114 -10 0 -52 2 -93 3 -199 7 -304 51 -357 149 -13 24
-17 55 -17 127 0 89 4 106 57 265 75 221 176 495 192 520 12 20 22 20 729 17
l717 -2 18 -43 c10 -23 27 -62 39 -87 31 -70 97 -237 125 -320 54 -162 73
-252 76 -354 2 -67 -1 -86 -24 -133 -47 -96 -148 -139 -326 -138 l-94 0 -5
-65 c-3 -36 -4 -88 -2 -116 l4 -50 751 0 752 0 0 113 c1 95 -2 113 -15 114 -8
0 -42 2 -74 4 -113 7 -232 90 -329 228 -33 46 -63 116 -122 277 -43 118 -98
269 -122 335 -24 66 -57 156 -73 200 -15 44 -94 260 -175 480 -152 416 -157
429 -223 610 -22 61 -101 277 -175 480 -74 204 -163 447 -197 540 -33 94 -65
179 -70 190 -6 11 -23 58 -39 105 -17 47 -43 119 -58 160 l-28 75 -216 1
c-146 0 -216 -3 -216 -10z m407 -1406 c165 -496 300 -905 300 -906 0 -2 -277
-4 -615 -4 l-614 0 15 43 c16 42 40 113 269 782 69 204 153 449 186 545 33 96
81 237 107 312 25 76 47 136 49 135 1 -2 138 -410 303 -907z"/>
<path d="M310 2863 c0 -905 2 -1644 4 -1642 3 3 347 916 393 1043 8 21 91 244
184 495 94 251 234 625 311 831 129 345 306 818 324 865 4 10 -14 -2 -41 -29
-81 -81 -181 -114 -344 -114 -185 0 -451 60 -724 164 -49 19 -93 34 -98 34 -5
0 -9 -659 -9 -1647z"/>
<path d="M2990 4507 c0 -3 43 -124 94 -267 26 -71 350 -963 437 -1200 49 -135
108 -297 130 -360 23 -63 45 -124 50 -135 10 -24 143 -388 305 -840 62 -171
75 -205 109 -292 8 -21 27 -74 42 -118 30 -89 51 -113 128 -150 148 -70 318
-60 473 27 l52 29 0 1656 c0 910 -3 1653 -7 1651 -194 -100 -384 -164 -542
-183 -30 -4 -63 -9 -75 -12 -36 -8 -361 -10 -422 -2 -33 4 -81 10 -109 14
-146 18 -377 79 -554 146 -108 40 -111 41 -111 36z"/>
</g>
</svg>
